<?xml version="1.0" encoding="UTF-8" standalone="no"?>
<svg
   xmlns:dc="http://purl.org/dc/elements/1.1/"
   xmlns:cc="http://creativecommons.org/ns#"
   xmlns:rdf="http://www.w3.org/1999/02/22-rdf-syntax-ns#"
   xmlns:svg="http://www.w3.org/2000/svg"
   xmlns="http://www.w3.org/2000/svg"
   viewBox="0 0 1365.3333 910.66669"
   height="910.66669"
   width="1365.3333"
   id="svg2"
   version="1.1">
  <metadata
     id="metadata8">
    <rdf:RDF>
      <cc:Work
         rdf:about="">
        <dc:format>image/svg+xml</dc:format>
        <dc:type
           rdf:resource="http://purl.org/dc/dcmitype/StillImage" />
        <dc:title></dc:title>
      </cc:Work>
    </rdf:RDF>
  </metadata>
  <defs
     id="defs6" />
  <path
     id="path12"
     d="M 0,690.9181 C 0,471.61304 0.00548716,471.16363 2.7186067,468.25143 c 1.4952339,-1.60495 3.2723396,-2.91808 3.9491239,-2.91808 0.6767844,0 5.6034114,-2.06774 10.9480594,-4.59496 5.344648,-2.52723 11.217543,-4.8691 13.050876,-5.20415 1.833333,-0.33506 5.133333,-1.04259 7.333333,-1.5723 4.657596,-1.12145 25.941399,-9.85962 28.214026,-11.58341 0.851049,-0.64552 7.151049,-2.72255 14,-4.6156 31.873485,-8.80988 45.953305,-14.11987 50.355475,-18.99079 1.88677,-2.08766 5.99843,-6.71545 9.13702,-10.28396 3.13858,-3.56849 6.13858,-6.8894 6.66666,-7.3798 0.52808,-0.4904 2.6013,-2.5904 4.60715,-4.66666 23.46503,-24.28886 48.08132,-48.44647 49.38547,-48.4653 0.89881,-0.0133 3.1342,-1.86228 4.96753,-4.10957 6.98929,-8.56748 11.73874,-12.67257 16.27108,-14.06359 5.85609,-1.79729 16.63736,-9.68489 17.50026,-12.80325 0.38956,-1.40783 1.93536,-2.33334 3.89718,-2.33334 1.78833,0 4.33749,-1.2 5.66481,-2.66666 1.32732,-1.46667 3.07031,-2.66918 3.87332,-2.67226 0.803,-0.003 4.41171,-1.50306 8.01932,-3.33333 3.60761,-1.83025 7.65761,-3.32775 9,-3.32775 1.34239,0 2.44069,-0.55233 2.44069,-1.22738 0,-0.67507 1.68162,-1.59675 3.73692,-2.04816 2.05531,-0.45143 6.657,-2.2991 10.22598,-4.10595 3.56897,-1.80684 7.83761,-3.28517 9.48586,-3.28517 1.64826,0 5.89658,-1.31964 9.4407,-2.93254 3.54413,-1.61289 7.94388,-3.01594 9.77721,-3.1179 1.83333,-0.102 6.33333,-0.70018 10,-1.3294 3.66667,-0.62922 7.41667,-0.99986 8.33333,-0.82364 0.91667,0.1762 1.66667,-0.24088 1.66667,-0.92687 0,-0.68597 1.5,-1.62371 3.33333,-2.08384 2.98124,-0.74825 3.33333,-1.51833 3.33333,-7.2906 0,-11.85772 5.97738,-20.9018 28.6323,-43.32217 11.0189,-10.90483 23.33437,-22.59436 27.3677,-25.97674 16.95684,-14.22011 41.07946,-41.50585 52.55818,-59.44999 2.45529,-3.83822 7.98413,-11.83818 12.28632,-17.77769 4.3022,-5.93951 9.59218,-13.68724 11.75554,-17.2172 15.57881,-25.420012 26.62463,-38.8459 30.6794,-37.289943 2.01796,0.774368 1.11061,6.737348 -2.87164,18.871849 -6.68693,20.376074 -39.07429,83.802294 -62.40166,122.205114 -0.73671,1.21281 -6.83423,10.1577 -13.55004,19.87753 -6.71582,9.71984 -11.95706,18.32753 -11.6472,19.12823 0.65925,1.70356 10.54677,2.21301 24.1911,1.24641 9.14207,-0.64764 9.66667,-0.85952 9.66667,-3.90437 0,-2.62524 0.67849,-3.21958 3.67547,-3.21958 5.53654,0 12.42621,-2.29604 14.21008,-4.73562 1.21046,-1.65542 3.93857,-2.18487 11.517,-2.23515 5.46193,-0.0363 12.33078,0.24775 15.26411,0.63108 2.93334,0.38333 9.08334,1.14408 13.66667,1.69055 4.58333,0.54648 8.33333,1.51609 8.33333,2.1547 0,0.6386 2.66459,1.16111 5.92131,1.16111 3.25672,0 6.28535,0.589 6.73027,1.30891 0.44492,0.71989 5.43032,1.23608 11.07868,1.14706 5.64836,-0.0891 11.9588,0.52199 14.02321,1.35778 2.0644,0.83577 5.41108,1.51958 7.43705,1.51958 4.321,0 20.32016,5.38076 23.26422,7.82412 1.11882,0.92854 4.1867,1.95523 6.81752,2.28154 2.6308,0.32629 7.32078,1.54365 10.42218,2.70521 3.10139,1.16157 8.37462,2.53209 11.71828,3.04559 3.34367,0.5135 7.84367,2.16837 10,3.67749 2.15633,1.50912 5.68224,3.17079 7.83536,3.69261 5.66252,1.37236 18.86048,15.3804 19.94683,21.17116 0.77469,4.12943 1.83629,5.09223 9.83674,8.92124 10.30376,4.93136 19.0067,7.76163 39.63502,12.8896 19.97356,4.96523 43.01465,4.96615 62.21357,0.003 11.61306,-3.00241 16.88477,-5.27051 31.68474,-13.63199 10.41706,-5.88528 35.69168,-29.54781 42.13287,-39.4455 10.13121,-15.56786 21.22157,-43.68631 23.89285,-60.57778 0.45424,-2.87234 1.18942,-7.62245 1.63372,-10.55579 1.65268,-10.91096 6.00819,-13.51216 8.37214,-5 2.34514,8.44447 1.65477,35.60235 -1.23756,48.68295 -11.26152,50.93022 -39.449,91.98817 -77.359,112.68114 -25.55726,13.95029 -49.68611,19.63575 -83.33333,19.63575 h -13.33334 l -0.3885,6.52408 c -0.21368,3.58825 -0.96368,7.59881 -1.66667,8.91234 -1.90068,3.55144 -1.54651,10.01435 0.64861,11.83614 1.05972,0.87949 3.84484,4.70296 6.18915,8.49658 2.34432,3.79364 5.97727,9.3956 8.07323,12.44883 2.09597,3.05321 3.81085,6.14024 3.81085,6.86005 0,0.71982 1.48964,2.72172 3.31029,4.4487 1.82067,1.72697 3.32067,3.5459 3.33334,4.04206 0.0133,0.49618 2.87545,5.59618 6.36174,11.33334 3.48628,5.73717 7.83628,13.73121 9.66667,17.76455 1.83037,4.03333 4.37796,8.49646 5.66129,9.91808 1.28334,1.42161 2.33334,3.06476 2.33334,3.65142 0,1.24446 2.66845,4.58004 9.79709,12.2464 7.32818,7.88098 14.2029,18.34532 14.2029,21.61895 0,1.69748 1.31644,3.40359 3.3364,4.32393 4.29684,1.95778 8.65224,9.12343 8.65862,14.24546 0.003,2.20233 -1.19502,8.20042 -2.66168,13.32909 -1.46667,5.12867 -2.66667,11.23883 -2.66667,13.57815 0,2.79718 -1.94252,7.13505 -5.67409,12.6709 -3.12076,4.6297 -6.50762,10.04047 -7.52636,12.02395 -2.3703,4.61496 -8.27145,7.38972 -17.24603,8.10919 -5.52609,0.44301 -8.48829,1.61041 -13.32929,5.25309 -11.34589,8.53738 -13.68856,8.9973 -36.22423,7.1117 -13.74852,-1.15036 -25.19886,-5.44268 -33.99646,-12.74404 -2.98591,-2.47809 -10.33974,-0.8171 -17.16112,3.87614 -6.31107,4.34214 -14.55428,14.42976 -13.36452,16.35483 0.39617,0.64103 -0.0387,1.00063 -0.96627,0.79913 -0.92763,-0.2015 -1.9276,0.74276 -2.22217,2.09836 -0.55452,2.55182 -2.69714,5.38204 -11.39812,15.056 -8.08111,8.98475 -13.38319,10.8483 -36.25268,12.74187 -25.75388,2.13241 -30.65115,1.97263 -49.10251,-1.60208 -4.28845,-0.83083 -7.9415,-1.31932 -8.1179,-1.08556 -0.1764,0.23377 -2.65174,4.32504 -5.50072,9.09171 -2.849,4.76666 -6.50274,10.46666 -8.11943,12.66666 -1.61669,2.2 -2.83769,4.3 -2.71333,4.66667 0.1244,0.36667 -1.36124,2.76667 -3.30135,5.33333 -3.21559,4.25408 -12.61209,22.96548 -21.76119,43.33334 -5.93757,13.21832 -16.55881,44.05911 -20.89295,60.66667 -6.10719,23.40149 -14.5655,51.71916 -16.92598,56.66666 -4.95598,10.38762 -11.59982,39.87989 -9.95154,44.17526 0.73441,1.91385 -1.6916,23.08163 -3.74008,32.63335 l -1.39931,6.52473 H 212.55618 0 Z"
     style="fill:#000000;stroke-width:1.33333337" />
</svg>
