<?xml version="1.0" encoding="UTF-8" standalone="no"?>
<!-- Created with Inkscape (http://www.inkscape.org/) -->

<svg
   xmlns:dc="http://purl.org/dc/elements/1.1/"
   xmlns:cc="http://creativecommons.org/ns#"
   xmlns:rdf="http://www.w3.org/1999/02/22-rdf-syntax-ns#"
   xmlns:svg="http://www.w3.org/2000/svg"
   xmlns="http://www.w3.org/2000/svg"
   xmlns:sodipodi="http://sodipodi.sourceforge.net/DTD/sodipodi-0.dtd"
   xmlns:inkscape="http://www.inkscape.org/namespaces/inkscape"
   version="1.1"
   id="svg2"
   width="421"
   height="160"
   viewBox="0 0 421 160"
   sodipodi:docname="eToro.svg"
   inkscape:version="0.92.5 (2060ec1f9f, 2020-04-08)">
  <metadata
     id="metadata8">
    <rdf:RDF>
      <cc:Work
         rdf:about="">
        <dc:format>image/svg+xml</dc:format>
        <dc:type
           rdf:resource="http://purl.org/dc/dcmitype/StillImage" />
        <dc:title></dc:title>
      </cc:Work>
    </rdf:RDF>
  </metadata>
  <defs
     id="defs6" />
  <sodipodi:namedview
     pagecolor="#ffffff"
     bordercolor="#666666"
     borderopacity="1"
     objecttolerance="10"
     gridtolerance="10"
     guidetolerance="10"
     inkscape:pageopacity="0"
     inkscape:pageshadow="2"
     inkscape:window-width="640"
     inkscape:window-height="480"
     id="namedview4"
     showgrid="false"
     inkscape:zoom="0.81472684"
     inkscape:cx="224.00146"
     inkscape:cy="68.953353"
     inkscape:window-x="0"
     inkscape:window-y="29"
     inkscape:window-maximized="0"
     inkscape:current-layer="svg2" />
  <path
     style="fill:#008000"
     d="m 67.5,141.66439 c -9.778866,-3.2472 -15.8301,-8.03031 -19.133129,-15.12352 -2.214107,-4.75477 -2.347888,-6.16941 -2.357102,-24.92485 -0.01092,-22.230871 0.607216,-25.64028 5.734744,-31.630644 4.703599,-5.495098 10.700975,-8.768849 19.37892,-10.578252 17.628007,-3.675544 35.138787,4.63468 39.301347,18.651538 2.02292,6.811919 2.19121,25.185228 0.24547,26.800048 -0.86447,0.71744 -9.52453,1.19766 -24.750002,1.37244 L 62.5,106.5 l 0.0989,6.28757 c 0.08595,5.4638 0.468521,6.67337 2.920083,9.23225 7.302226,7.62188 20.888965,7.57223 28.565583,-0.10439 1.970943,-1.97094 2.001929,-1.96494 8.437924,1.63427 3.55284,1.98686 6.7393,4.06487 7.08103,4.61779 1.05191,1.70204 -5.77153,7.78614 -12.387039,11.04487 -5.461867,2.69046 -7.554069,3.13999 -16,3.43774 C 74.932149,142.87165 70.087082,142.52347 67.5,141.66439 Z M 94.816825,88.059122 c 0.400897,-5.619305 -1.01041,-8.237609 -5.930798,-11.003022 -8.231248,-4.62622 -21.924978,-1.708476 -25.293061,5.389231 -1.642826,3.461998 -2.118977,8.695325 -0.901877,9.912425 0.380099,0.380099 7.692599,0.567599 16.25,0.416667 L 94.5,92.5 Z M 141.66667,142.33333 C 141.3,141.96667 141,126.89167 141,108.83333 c 0,-30.616462 -0.11816,-32.830974 -1.75,-32.798442 -0.9625,0.01919 -5.35,0.685335 -9.75,1.480325 -4.4,0.794991 -8.28742,1.454291 -8.63871,1.465112 -0.35129,0.01082 -0.93598,-1.564946 -1.29932,-3.501706 -0.36334,-1.936759 -1.98726,-5.032343 -3.60871,-6.879075 l -2.9481,-3.357694 6.70006,-1.682999 c 17.13874,-4.305114 42.47269,-4.311623 59.5422,-0.0153 l 6.74742,1.698297 -2.79504,3.183367 c -1.53726,1.750852 -3.41377,4.733936 -4.17,6.629075 -0.75624,1.89514 -1.45665,3.567541 -1.55646,3.716448 -0.0998,0.148907 -2.38465,-0.160731 -5.07741,-0.688083 -2.69276,-0.527353 -7.03343,-1.239259 -9.64593,-1.582013 L 158,75.877452 V 109.43873 143 h -7.83333 c -4.30834,0 -8.13334,-0.3 -8.5,-0.66667 z m 71.92763,-0.39032 C 206.61222,140.77344 196.60309,135.5528 193.00687,131.20486 188.08828,125.25813 187,119.78583 187,101 c 0,-20.728817 1.10154,-25.196783 7.88433,-31.979569 6.90497,-6.904969 13.90213,-9.391336 26.61567,-9.457596 8.84591,-0.0461 10.6694,0.260906 15.80023,2.660195 8.53049,3.989046 11.42751,6.373561 14.72184,12.117461 l 2.95916,5.159509 -0.0126,21 c -0.0143,23.93449 -0.55186,26.20128 -7.75261,32.69343 -5.42042,4.88701 -9.03957,6.66121 -17.05227,8.35948 -7.33884,1.55544 -9.33242,1.60238 -16.56947,0.3901 z m 16.82032,-18.00788 c 7.94874,-3.73635 8.04519,-3.99844 8.39857,-22.82198 0.30028,-15.994938 0.22106,-16.799888 -1.9214,-19.523587 -6.26744,-7.967754 -22.2091,-8.76627 -29.98556,-1.501973 L 204,82.80242 v 16.963931 c 0,15.896089 0.13668,17.137699 2.1714,19.724419 4.90318,6.23339 16.07872,8.28213 24.24322,4.44436 z M 267,112.86602 c 0,-20.736358 0.37926,-31.417608 1.21612,-34.25 1.77824,-6.018578 9.85178,-13.743206 17.31487,-16.566594 C 291.83416,59.664855 308,57.947797 308,59.662876 c 0,0.519635 -1.61443,2.495565 -3.58763,4.390957 -1.97319,1.895392 -4.43817,5.096089 -5.47772,7.112661 -1.40582,2.727074 -3.28677,4.305915 -7.34124,6.162112 C 282.96694,81.277934 283,81.135115 283,114.45034 V 143 h -8 -8 z M 334.17629,141.93 c -5.91096,-1.16323 -15.0719,-5.47714 -18.55277,-8.73654 -1.58206,-1.4814 -3.94017,-4.94346 -5.24023,-7.69346 -2.22368,-4.7037 -2.36433,-6.11905 -2.37352,-23.88398 -0.0117,-22.607186 0.59483,-25.225084 7.46924,-32.238665 13.78015,-14.059141 41.40425,-13.541422 54.21832,1.016136 5.66141,6.431697 6.30408,9.620325 6.2929,31.222529 -0.009,17.76493 -0.14984,19.18028 -2.37352,23.88398 -4.05812,8.58407 -12.40857,14.28309 -24.05037,16.41394 -6.70436,1.22712 -9.22265,1.22975 -15.39005,0.0161 z m 17.47797,-18.445 c 7.92482,-3.9491 8.57446,-5.92073 8.17796,-24.819475 L 359.5,82.831049 356.3033,79.977246 c -7.63806,-6.818766 -21.9207,-6.559849 -29.00638,0.52583 L 324,83.8 v 15.695708 c 0,18.366742 0.622,20.140392 8.42702,24.029792 6.54154,3.25979 12.63016,3.24696 19.22724,-0.0405 z M 29.643,93.332856 C 18.977707,90.901721 8.9348904,84.515165 5.5114679,77.986825 1.4001867,70.146765 3.0595388,60.98632 10.526453,50.301626 16.60327,41.606076 40.040171,13 41.087602,13 43.092247,13 42.636993,15.31803 38.955049,23.858374 34.572885,34.022895 31,45.912163 31,50.329901 c 0,1.930701 1.112837,3.982936 3.4,6.270099 3.009232,3.009232 4.007654,3.4 8.687091,3.4 h 5.287091 l -2.526207,2.75 c -6.587104,7.170646 -8.846574,12.804226 -9.750439,24.310959 L 35.5,94.667949 Z M 385.80392,85.739233 C 385.3189,75.406882 383.53253,70.808972 377.34033,63.95494 L 373.76728,60 h 4.66602 C 386.60077,60 391,56.089574 391,48.829596 391,45.30874 385.41271,28.131354 381.64481,20.068301 379.23785,14.917553 379.05373,13 380.96613,13 c 1.87663,0 31.61664,37.388145 35.27729,44.349449 3.31131,6.296953 3.10756,15.702977 -0.47205,21.792162 -4.10868,6.989167 -13.50491,12.318785 -26.90256,15.259351 l -2.63119,0.577504 z"
     id="path12"
     inkscape:connector-curvature="0" />
</svg>
