<?xml version="1.0" encoding="UTF-8" standalone="no"?>
<svg
   xmlns:dc="http://purl.org/dc/elements/1.1/"
   xmlns:cc="http://creativecommons.org/ns#"
   xmlns:rdf="http://www.w3.org/1999/02/22-rdf-syntax-ns#"
   xmlns:svg="http://www.w3.org/2000/svg"
   xmlns="http://www.w3.org/2000/svg"
   viewBox="0 0 333.33334 333.33334"
   height="333.33334"
   width="333.33334"
   id="svg2"
   version="1.1">
  <metadata
     id="metadata8">
    <rdf:RDF>
      <cc:Work
         rdf:about="">
        <dc:format>image/svg+xml</dc:format>
        <dc:type
           rdf:resource="http://purl.org/dc/dcmitype/StillImage" />
        <dc:title></dc:title>
      </cc:Work>
    </rdf:RDF>
  </metadata>
  <defs
     id="defs6" />
  <path
     id="path3742"
     d="m 148.96988,317.06853 c -21.19302,-6.04766 -38.05594,-18.82278 -50.997924,-38.63534 -3.197568,-4.89506 -5.817458,-9.39506 -5.821977,-10 -0.0045,-0.60492 -0.855037,-2.72306 -1.890044,-4.70698 -1.035006,-1.98394 -3.13131,-8.54816 -4.658453,-14.58719 -2.443447,-9.66254 -2.776621,-14.94756 -2.776621,-44.04466 0,-36.27773 1.334894,-45.10026 9.099992,-60.1433 8.157417,-15.80307 27.785037,-31.63023 47.566677,-38.35643 8.24733,-2.80428 11.73804,-3.17368 30,-3.17473 22.11704,-0.001 28.33921,1.31085 44.10767,9.30133 13.3438,6.76182 30.66282,24.86389 33.91308,35.4464 0.53476,1.74113 1.54266,3.87997 2.23978,4.75296 2.89974,3.63124 4.98135,23.26163 5.02629,47.39969 l 0.0465,24.98695 -62.99999,0.34639 -63,0.34638 0.006,10.78342 c 0.005,9.22786 0.55935,11.87762 3.84361,18.36885 7.19264,14.21603 21.58801,23.5144 36.40404,23.5144 7.41833,0 21.38509,-4.28729 28.51267,-8.75237 4.61625,-2.89187 13.21616,-11.24811 18.27626,-17.75845 2.85475,-3.67293 2.80114,-3.69111 18.29102,6.20844 5.13333,3.2807 10.70538,6.81913 12.38234,7.86317 l 3.049,1.89824 -3.71462,6.93716 c -6.04598,11.291 -23.17786,27.46573 -35.87063,33.86656 -21.10677,10.64392 -42.33601,13.47491 -61.03441,8.13911 z m 57.85498,-135.86702 c 0,-15.01861 -1.5076,-19.7556 -8.47669,-26.63445 -8.2132,-8.10686 -13.39259,-9.88348 -28.18997,-9.66974 -15.19015,0.21942 -23.50948,2.93983 -31.14792,10.18531 -7.82078,7.41844 -10.69563,18.758 -9.61293,37.91737 0.0731,1.29286 8.76663,1.66667 38.76085,1.66667 h 38.66666 z M 57.558385,207.209 c -19.067991,-5.97986 -39.50533,-22.2959 -47.371272,-37.8186 -8.4142074,-16.60462 -8.2101504,-35.25744 0.565783,-51.71797 3.426267,-6.42646 23.9873,-35.518286 26.625488,-37.672426 0.449057,-0.36667 3.499549,-3.96667 6.778869,-8 6.223886,-7.65494 38.881722,-44.91291 47.149572,-53.79099 7.724113,-8.2942101 11.160745,-4.53821 6.122597,6.69156 -1.587304,3.53802 -3.697241,8.23276 -4.688749,10.43276 -6.636878,14.72619 -12.037107,30.10953 -19.566773,55.73881 -0.819584,2.78968 -1.533402,8.87655 -1.586262,13.526386 -0.10856,9.54967 1.895842,12.92834 9.246727,15.58646 l 4.294021,1.55274 -3.669975,5.46447 c -11.043847,16.44392 -14.565237,29.68007 -15.554093,58.46447 -0.447174,13.01667 -1.172986,23.60735 -1.612916,23.53484 -0.439931,-0.0725 -3.469789,-0.96913 -6.733017,-1.99251 z M 273.07789,185.73175 c -0.6919,-20.07555 -1.32558,-25.33083 -4.1131,-34.11107 -3.25372,-10.24874 -11.52707,-26.67251 -14.29906,-28.38569 -0.78513,-0.48524 0.87948,-1.91653 3.69915,-3.18065 7.80963,-3.50123 9.15352,-5.87447 8.94159,-15.7903 -0.10174,-4.762346 -0.80818,-10.819986 -1.56976,-13.461426 -6.48938,-22.50754 -13.32421,-40.88684 -23.44806,-63.05338 -5.21475,-11.41788 -4.16908,-17.8141701 2.08425,-12.74923 2.35406,1.90668 18.19773,19.68627 38.31798,43 7.59459,8.8 15.19768,17.60673 16.89577,19.57051 7.91667,9.15535 23.53446,30.876646 27.86422,38.753656 11.47381,20.87405 10.07121,41.79775 -4.17908,62.3425 -7.74823,11.17068 -26.84455,24.33727 -40.71479,28.07213 -2.87773,0.7749 -6.00377,1.70495 -6.94672,2.0668 -1.33939,0.51398 -1.89341,-4.5341 -2.53239,-23.07385 z"
     style="fill:#008000" />
</svg>
