<?xml version="1.0" encoding="UTF-8" standalone="no"?>
<!-- Created with Inkscape (http://www.inkscape.org/) -->

<svg
   xmlns:dc="http://purl.org/dc/elements/1.1/"
   xmlns:cc="http://creativecommons.org/ns#"
   xmlns:rdf="http://www.w3.org/1999/02/22-rdf-syntax-ns#"
   xmlns:svg="http://www.w3.org/2000/svg"
   xmlns="http://www.w3.org/2000/svg"
   xmlns:sodipodi="http://sodipodi.sourceforge.net/DTD/sodipodi-0.dtd"
   xmlns:inkscape="http://www.inkscape.org/namespaces/inkscape"
   sodipodi:docname="leafs.svg"
   viewBox="0 0 84 86.666664"
   height="86.666664"
   width="84"
   id="svg2"
   version="1.1">
  <metadata
     id="metadata8">
    <rdf:RDF>
      <cc:Work
         rdf:about="">
        <dc:format>image/svg+xml</dc:format>
        <dc:type
           rdf:resource="http://purl.org/dc/dcmitype/StillImage" />
        <dc:title></dc:title>
      </cc:Work>
    </rdf:RDF>
  </metadata>
  <defs
     id="defs6" />
  <sodipodi:namedview
     pagecolor="#ffffff"
     bordercolor="#666666"
     borderopacity="1"
     objecttolerance="10"
     gridtolerance="10"
     guidetolerance="10"
     inkscape:pageopacity="0"
     inkscape:pageshadow="2"
     inkscape:window-width="1920"
     inkscape:window-height="1014"
     id="namedview4"
     showgrid="true"
     showguides="false"
     inkscape:zoom="3.8510124"
     inkscape:cx="19.959514"
     inkscape:cy="-4.9145449"
     inkscape:window-x="0"
     inkscape:window-y="29"
     inkscape:window-maximized="1"
     inkscape:current-layer="svg2"
     scale-x="1"
     inkscape:pagecheckerboard="false"
     showborder="true" />
  <path
     style="fill:#000000;stroke-width:1.33333325"
     d="m 48.259671,84.951034 c 0,-2.4003 2.786195,-7.0231 7.159992,-11.87971 2.295337,-2.54871 0.763055,-1.5023 -3.405073,2.32536 -4.663443,4.28251 -8.338803,6.66759 -9.555291,6.20078 -2.729684,-1.04748 -4.072509,-12.2701 -2.269391,-18.96636 1.800315,-6.68586 9.81733,-13.96231 17.792244,-16.1487 3.085968,-0.84605 9.810852,-1.66699 14.944186,-1.82432 l 9.333333,-0.28606 0.405603,10 c 0.510216,12.5792 -1.468318,19.75833 -7.333822,26.61085 l -4.612909,5.38915 H 59.489107 c -7.059203,0 -11.229436,-0.52771 -11.229436,-1.42099 z m 17.066213,-1.78566 c 8.580318,-4.46434 13.600454,-14.41605 13.600454,-26.96099 v -7.1657 H 71.76064 c -12.544937,0 -22.496652,5.02014 -26.960988,13.60046 -2.052229,3.94432 -2.512564,11.18042 -0.779401,12.25157 0.601652,0.37184 4.351652,-1.99846 8.333333,-5.26734 8.246154,-6.76992 11.765251,-8.30328 13.312108,-5.80041 0.695175,1.12482 -0.703494,3.87511 -3.971462,7.80935 -4.750366,5.71886 -8.101226,10.95205 -8.101226,12.65205 0,1.49598 8.21232,0.71275 11.73288,-1.11899 z m -45.72415,-6.8909 c -6.620499,-3.45205 -12.7549257,-8.63609 -15.4505967,-13.05689 -2.059284,-3.37715 -2.548919,-6.73698 -2.552097,-17.51223 -0.0036,-12.08467 0.374923,-14.13417 4.041518,-21.88471 C 10.474454,13.602624 18.466249,2.3720237 20.903582,2.3720237 c 3.018573,0 19.800388,14.0789903 24.858773,20.8551003 10.085435,13.51025 11.69166,20.42281 5.497316,23.65829 -5.718528,2.98695 -10.595968,8.95061 -12.437424,15.20728 -2.423015,8.23261 -5.142387,6.88777 -8.888339,-4.39565 l -3.09579,-9.32502 0.773449,10.41137 c 0.425397,5.72626 1.34954,11.92661 2.053649,13.77856 0.70411,1.85194 0.940496,3.91683 0.525304,4.58862 -1.148906,1.85897 -6.134443,1.44647 -10.588786,-0.8761 z m 5.339888,-5.56912 c -1.371336,-3.41607 -4.570583,-39.80453 -3.76906,-42.86956 0.907556,-3.4705 4.102168,-4.57743 4.990105,-1.72907 1.413201,4.53333 6.359009,23.69371 7.035755,27.25696 l 0.694801,3.65833 6.183224,-6.32499 c 3.400773,-3.47875 7.309705,-6.94402 8.686516,-7.7006 2.402073,-1.31997 2.359797,-1.65876 -1.045536,-8.37887 -3.501624,-6.91012 -15.9072,-20.52431 -22.843768,-25.0693203 -3.482626,-2.28191 -3.622402,-2.26103 -6.098805,0.9108403 -4.568977,5.85214 -10.6083664,17.7525 -13.4581797,26.51878 -2.433618,7.48602 -2.591617,9.37617 -1.21424,14.52603 2.000176,7.47843 5.7203114,12.71864 12.5325047,17.65337 6.148183,4.45372 9.741975,5.12349 8.306683,1.5481 z m 1.562201,-25.91667 c -0.425634,-1.06364 -0.741577,-0.7477 -0.805556,0.80556 -0.05789,1.40555 0.257238,2.19305 0.700294,1.75 0.443054,-0.44306 0.490423,-1.59306 0.105266,-2.55556 z"
     id="path3748"
     inkscape:connector-curvature="0" />
</svg>
