<?xml version="1.0" encoding="UTF-8" standalone="no"?>
<!-- Generator: Adobe Illustrator 21.0.2, SVG Export Plug-In . SVG Version: 6.00 Build 0)  -->

<svg
   xmlns:dc="http://purl.org/dc/elements/1.1/"
   xmlns:cc="http://creativecommons.org/ns#"
   xmlns:rdf="http://www.w3.org/1999/02/22-rdf-syntax-ns#"
   xmlns:svg="http://www.w3.org/2000/svg"
   xmlns="http://www.w3.org/2000/svg"
   xmlns:sodipodi="http://sodipodi.sourceforge.net/DTD/sodipodi-0.dtd"
   xmlns:inkscape="http://www.inkscape.org/namespaces/inkscape"
   version="1.1"
   id="Layer_1"
   x="0px"
   y="0px"
   viewBox="0 0 84 86.699997"
   xml:space="preserve"
   sodipodi:docname="leafs-inverted.svg"
   width="84"
   height="86.699997"
   inkscape:version="0.92.5 (2060ec1f9f, 2020-04-08)"><metadata
   id="metadata13"><rdf:RDF><cc:Work
       rdf:about=""><dc:format>image/svg+xml</dc:format><dc:type
         rdf:resource="http://purl.org/dc/dcmitype/StillImage" /></cc:Work></rdf:RDF></metadata><defs
   id="defs11" /><sodipodi:namedview
   pagecolor="#ffffff"
   bordercolor="#666666"
   borderopacity="1"
   objecttolerance="10"
   gridtolerance="10"
   guidetolerance="10"
   inkscape:pageopacity="0"
   inkscape:pageshadow="2"
   inkscape:window-width="960"
   inkscape:window-height="1014"
   id="namedview9"
   showgrid="false"
   inkscape:zoom="5.4252874"
   inkscape:cx="69.544347"
   inkscape:cy="31.808131"
   inkscape:window-x="960"
   inkscape:window-y="29"
   inkscape:window-maximized="0"
   inkscape:current-layer="g6" />
<style
   type="text/css"
   id="style2">
	.st0{fill:#008000;}
</style>
<g
   id="g6"
   transform="translate(0.065168,0.1303354)">
	<path
   class="st0"
   d="M -0.5529661,-0.92161016 V 86.7 H 85.105932 V -0.92161016 Z M 35.750091,67.295906 c -1.733573,0 -3.569121,-3.436141 -6.628367,-12.53181 -1.223699,-3.537205 -2.243447,-6.366968 -2.243447,-6.265905 -0.203951,0.202126 0.917773,13.340314 1.325673,16.675393 0.509874,3.73933 0.815799,5.457401 1.529623,7.579724 0.713824,2.526574 0.815799,4.042519 0,4.74996 -0.509875,0.505315 -0.917774,0.606378 -2.549372,0.606378 -1.019748,0 -2.651347,-0.101063 -3.467146,-0.303189 C 18.822261,76.795827 10.154397,70.934174 6.075401,66.184214 2.4043054,61.939568 1.6904812,59.615119 1.3845566,51.226891 c -0.1019749,-3.132952 -0.1019749,-8.287165 0,-11.420117 C 1.5885064,31.923861 2.2003556,29.700475 6.2793508,21.716499 10.562296,13.227208 17.088688,3.8283502 19.842009,2.3124054 l 1.019749,-0.6063779 1.835549,0.9095669 C 28,5.2432321 41.868584,17.370791 46.151528,23.131381 c 5.710593,7.680787 9.177739,14.249881 9.177739,17.787086 0,2.627637 -1.223698,4.345708 -4.384919,6.164842 -5.506644,3.132953 -9.789588,8.489291 -11.829086,14.452007 -1.325674,3.941457 -2.345423,5.76059 -3.365171,5.76059 z m 47.316343,-0.606378 c -0.611849,3.234016 -1.631598,6.06378 -2.855296,8.489291 -1.325674,2.627638 -2.141472,3.739331 -5.710593,7.882913 l -2.855297,3.436142 h -8.76984 c -4.792819,0 -9.585638,-0.101063 -10.503412,-0.202126 -0.917774,-0.101063 -2.243447,-0.303189 -2.753322,-0.505315 -0.917774,-0.303189 -0.917774,-0.303189 -0.815798,-1.313819 0.407899,-2.223385 3.059245,-6.468031 6.628367,-10.51055 0.917773,-1.111693 1.631597,-2.02126 1.631597,-2.02126 -0.203949,-0.202126 -1.223698,0.606378 -4.588869,3.638267 -3.569121,3.234016 -7.444166,5.861654 -8.76984,6.164843 -0.611849,0.101063 -1.019749,0.101063 -1.427648,-0.303189 -2.753322,-2.425512 -3.467146,-14.350945 -1.223699,-20.212598 2.345423,-6.164842 10.605388,-13.037125 17.845605,-14.755196 4.18097,-1.01063 10.911311,-1.718071 20.08905,-2.02126 l 4.18097,-0.101063 0.20395,1.212756 c 0.101975,0.606378 0.20395,5.154212 0.20395,10.005236 0,7.377598 -0.101975,9.095669 -0.509875,11.116928 z"
   id="path4"
   inkscape:connector-curvature="0"
   style="fill:#008000;stroke-width:1.01517904" />
	
</g>
</svg>