<?xml version="1.0" encoding="UTF-8" standalone="no"?>
<!-- Created with Inkscape (http://www.inkscape.org/) -->

<svg
   xmlns:dc="http://purl.org/dc/elements/1.1/"
   xmlns:cc="http://creativecommons.org/ns#"
   xmlns:rdf="http://www.w3.org/1999/02/22-rdf-syntax-ns#"
   xmlns:svg="http://www.w3.org/2000/svg"
   xmlns="http://www.w3.org/2000/svg"
   xmlns:sodipodi="http://sodipodi.sourceforge.net/DTD/sodipodi-0.dtd"
   xmlns:inkscape="http://www.inkscape.org/namespaces/inkscape"
   version="1.1"
   id="svg2"
   width="84"
   height="86.666664"
   viewBox="0 0 84 86.666664"
   sodipodi:docname="leafs.svg"
   inkscape:version="0.92.5 (2060ec1f9f, 2020-04-08)">
  <metadata
     id="metadata8">
    <rdf:RDF>
      <cc:Work
         rdf:about="">
        <dc:format>image/svg+xml</dc:format>
        <dc:type
           rdf:resource="http://purl.org/dc/dcmitype/StillImage" />
      </cc:Work>
    </rdf:RDF>
  </metadata>
  <defs
     id="defs6" />
  <sodipodi:namedview
     pagecolor="#ffffff"
     bordercolor="#666666"
     borderopacity="1"
     objecttolerance="10"
     gridtolerance="10"
     guidetolerance="10"
     inkscape:pageopacity="0"
     inkscape:pageshadow="2"
     inkscape:window-width="1920"
     inkscape:window-height="1014"
     id="namedview4"
     showgrid="true"
     showguides="false"
     inkscape:zoom="3.8510124"
     inkscape:cx="19.959514"
     inkscape:cy="-4.9145449"
     inkscape:window-x="0"
     inkscape:window-y="29"
     inkscape:window-maximized="1"
     inkscape:current-layer="svg2" />
  <path
     style="fill:#000000;stroke-width:1.33333325"
     d="m 48.259671,85.210706 c 0,-2.4003 2.786195,-7.0231 7.159992,-11.87971 2.295337,-2.54871 0.763055,-1.5023 -3.405073,2.32536 -4.663443,4.28251 -8.338803,6.66759 -9.555291,6.20078 -2.729684,-1.04748 -4.072509,-12.2701 -2.269391,-18.96636 1.800315,-6.68586 9.81733,-13.96231 17.792244,-16.1487 3.085968,-0.84605 9.810852,-1.66699 14.944186,-1.82432 l 9.333333,-0.28606 0.405603,10 c 0.510216,12.5792 -1.468318,19.75833 -7.333822,26.61085 l -4.612909,5.38915 H 59.489107 c -7.059203,0 -11.229436,-0.52771 -11.229436,-1.42099 z m 17.066213,-1.78566 c 8.580318,-4.46434 13.600454,-14.41605 13.600454,-26.96099 v -7.1657 H 71.76064 c -12.544937,0 -22.496652,5.02014 -26.960988,13.60046 -2.052229,3.94432 -2.512564,11.18042 -0.779401,12.25157 0.601652,0.37184 4.351652,-1.99846 8.333333,-5.26734 8.246154,-6.76992 11.765251,-8.30328 13.312108,-5.80041 0.695175,1.12482 -0.703494,3.87511 -3.971462,7.80935 -4.750366,5.71886 -8.101226,10.95205 -8.101226,12.65205 0,1.49598 8.21232,0.71275 11.73288,-1.11899 z m -45.72415,-6.8909 c -6.620499,-3.45205 -12.7549257,-8.63609 -15.4505967,-13.05689 -2.059284,-3.37715 -2.548919,-6.73698 -2.552097,-17.51223 -0.0036,-12.08467 0.374923,-14.13417 4.041518,-21.88471 C 10.474454,13.862296 18.466249,2.6316957 20.903582,2.6316957 c 3.018573,0 19.800388,14.0789903 24.858773,20.8551003 10.085435,13.51025 11.69166,20.42281 5.497316,23.65829 -5.718528,2.98695 -10.595968,8.95061 -12.437424,15.20728 -2.423015,8.23261 -5.142387,6.88777 -8.888339,-4.39565 l -3.09579,-9.32502 0.773449,10.41137 c 0.425397,5.72626 1.34954,11.92661 2.053649,13.77856 0.70411,1.85194 0.940496,3.91683 0.525304,4.58862 -1.148906,1.85897 -6.134443,1.44647 -10.588786,-0.8761 z m 5.339888,-5.56912 c -1.371336,-3.41607 -4.570583,-39.80453 -3.76906,-42.86956 0.907556,-3.4705 4.102168,-4.57743 4.990105,-1.72907 1.413201,4.53333 6.359009,23.69371 7.035755,27.25696 l 0.694801,3.65833 6.183224,-6.32499 c 3.400773,-3.47875 7.309705,-6.94402 8.686516,-7.7006 2.402073,-1.31997 2.359797,-1.65876 -1.045536,-8.37887 -3.501624,-6.91012 -15.9072,-20.52431 -22.843768,-25.0693203 -3.482626,-2.28191 -3.622402,-2.26103 -6.098805,0.9108403 -4.568977,5.85214 -10.6083664,17.7525 -13.4581797,26.51878 -2.433618,7.48602 -2.591617,9.37617 -1.21424,14.52603 2.000176,7.47843 5.7203114,12.71864 12.5325047,17.65337 6.148183,4.45372 9.741975,5.12349 8.306683,1.5481 z m 1.562201,-25.91667 c -0.425634,-1.06364 -0.741577,-0.7477 -0.805556,0.80556 -0.05789,1.40555 0.257238,2.19305 0.700294,1.75 0.443054,-0.44306 0.490423,-1.59306 0.105266,-2.55556 z"
     id="path3748"
     inkscape:connector-curvature="0" />
  <path
     style="fill:#000000;stroke-width:0.25967199"
     d="m 21.556294,7.3317528 c -2.33468,0.4998338 -3.466598,3.0238532 -4.85509,4.7303532 -5.658656,8.558237 -10.0823715,17.961029 -13.1176662,27.759652 -1.4471746,4.249049 -1.4879766,8.890773 -0.075967,13.154444 1.7944277,6.279393 5.6950652,11.833437 10.8690352,15.797127 2.98338,2.272252 6.137976,4.837099 9.943268,5.423449 1.527382,-0.169579 2.298578,-1.885689 1.576627,-3.212319 -1.64332,-7.803062 -2.167152,-15.868027 -2.933407,-23.818181 -0.445481,-6.330382 -1.088508,-12.698621 -0.811887,-19.024251 0.24515,-1.086646 1.5682,-3.086453 2.784373,-2.097155 2.886525,9.037124 5.155151,18.251958 7.318951,27.48056 0.520333,1.395031 0.09106,3.503492 1.548948,4.330778 1.611117,-0.0486 2.385443,-1.945667 3.572518,-2.817846 4.117816,-4.310877 8.383286,-8.530227 13.217914,-12.051924 1.665826,-1.751882 -0.06677,-4.140122 -0.808432,-5.901451 C 45.394351,28.001391 38.32172,20.585877 31.079398,13.710634 28.297077,11.366928 25.628589,8.5238747 22.08781,7.3773982 21.912688,7.3451413 21.734541,7.3257189 21.556294,7.3317528 Z"
     id="path3835"
     inkscape:connector-curvature="0" />
  <path
     style="fill:#000000;stroke-width:0.25967199"
     d="m 73.444535,48.362968 c -8.963576,-0.09786 -18.552128,1.958583 -25.159271,8.411445 -4.774052,4.464731 -7.265304,11.494948 -5.677789,17.909251 0.313551,1.509433 2.108598,1.687765 3.167288,0.828212 6.075001,-3.271867 10.722985,-8.791495 17.101834,-11.529031 0.973933,-0.500624 2.73997,0.487454 1.836469,1.641209 -3.22466,6.276078 -8.937788,10.993043 -11.672559,17.558288 -0.651045,1.259326 0.06496,3.090331 1.665045,2.927397 4.924521,0.140106 10.139928,-0.656729 14.079089,-3.846391 7.699799,-5.878574 11.084589,-15.924392 10.899516,-25.360605 -0.121319,-2.72867 0.330741,-5.57343 -0.249415,-8.21975 -1.804416,-0.7159 -4.046235,-0.153115 -5.990207,-0.320025 z"
     id="path3837"
     inkscape:connector-curvature="0" />
  <path
     style="fill:#008000;stroke-width:0.25967199"
     d="M 23.776693,78.036096 C 19.035382,76.855087 10.548809,71.134396 6.4728291,66.371784 2.8475124,62.135755 2.142078,59.866071 1.8710076,51.565758 1.7683956,48.423727 1.7622823,43.340648 1.8574226,40.270027 2.1004079,32.427754 2.6805779,30.250799 6.6258561,22.377578 10.858334,13.931218 17.267609,4.7054772 19.946571,3.2032624 l 1.039424,-0.5828523 1.784857,0.8973254 c 5.195131,2.6118192 18.842932,14.5924545 23.076187,20.2572825 5.642574,7.550743 8.960454,14.076211 8.960454,17.623045 0,2.599991 -1.17843,4.272925 -4.284587,6.082528 -5.356423,3.120576 -9.629624,8.402483 -11.583359,14.317666 -1.297659,3.928824 -2.360925,5.737327 -3.373121,5.737327 -1.665152,0 -3.468254,-3.449262 -6.486725,-12.408835 -1.168566,-3.4686 -2.170991,-6.260222 -2.227611,-6.203603 -0.158084,0.158086 0.890954,13.164305 1.333661,16.535062 0.484216,3.686787 0.809979,5.3591 1.466924,7.530488 0.748548,2.474162 0.757985,3.997793 0.02927,4.726705 -0.485773,0.485908 -0.909594,0.597196 -2.466883,0.647746 -1.034187,0.03357 -2.581454,-0.113601 -3.438371,-0.327051 z m 2.935755,-31.479283 c 0.08047,-1.088426 -0.28062,-2.132034 -0.73768,-2.132034 -0.282638,0 -0.348444,2.931597 -0.07201,3.208031 0.393744,0.393743 0.734512,-0.0591 0.809691,-1.075997 z"
     id="path3839"
     inkscape:connector-curvature="0" />
  <path
     style="fill:#008000;stroke-width:0.25967199"
     d="m 51.891838,86.219842 c -0.960923,-0.111947 -2.169306,-0.342868 -2.685295,-0.513161 -0.903128,-0.298059 -0.931568,-0.34494 -0.761595,-1.255446 0.414001,-2.217695 3.047039,-6.449523 6.479467,-10.41382 0.922661,-1.065632 1.628009,-1.987065 1.567441,-2.047633 -0.194256,-0.194258 -1.221283,0.615669 -4.540754,3.580892 -3.542995,3.16489 -7.281381,5.834185 -8.566026,6.116342 -0.609498,0.133866 -0.954116,0.0578 -1.356649,-0.299435 C 39.358199,79.017796 38.636259,67.236478 40.805921,61.437536 43.074723,55.373619 51.21461,48.564044 58.313065,46.791605 62.364466,45.779996 69.060408,45.114452 77.969322,44.83787 l 4.075939,-0.12654 0.176769,1.17878 c 0.09722,0.64833 0.191113,5.111886 0.208649,9.919014 0.02692,7.379937 -0.03959,9.111184 -0.427322,11.123683 -0.612664,3.179986 -1.554664,5.994461 -2.821029,8.428574 -1.333343,2.562853 -2.116348,3.652761 -5.576902,7.762821 l -2.828106,3.358901 -8.569175,-0.02986 C 57.495098,86.436832 52.85276,86.331789 51.891838,86.219842 Z"
     id="path3841"
     inkscape:connector-curvature="0" />
</svg>
