<?xml version="1.0" encoding="UTF-8" standalone="no"?>
<svg
   xmlns:dc="http://purl.org/dc/elements/1.1/"
   xmlns:cc="http://creativecommons.org/ns#"
   xmlns:rdf="http://www.w3.org/1999/02/22-rdf-syntax-ns#"
   xmlns:svg="http://www.w3.org/2000/svg"
   xmlns="http://www.w3.org/2000/svg"
   viewBox="0 0 240 240"
   height="240"
   width="240"
   id="svg2"
   version="1.1">
  <metadata
     id="metadata8">
    <rdf:RDF>
      <cc:Work
         rdf:about="">
        <dc:format>image/svg+xml</dc:format>
        <dc:type
           rdf:resource="http://purl.org/dc/dcmitype/StillImage" />
        <dc:title></dc:title>
      </cc:Work>
    </rdf:RDF>
  </metadata>
  <defs
     id="defs6" />
  <path
     id="path12"
     d="M 50,135 V 80 h 15 15 v 55 55 H 65 50 Z m 50,0 V 80 h 15 15 v 8.299063 8.299064 l 5.82015,-5.659924 c 8.02201,-7.801168 14.55485,-10.293151 27.20088,-10.375901 8.79124,-0.05753 10.02855,0.187552 16.14238,3.197383 10.62805,5.23217 17.43313,14.566904 19.82894,27.199965 C 199.5549,113.926 200,132.55618 200,153.13649 V 190 h -15 -15 v -30.34107 c 0,-32.26214 -0.47016,-36.29735 -4.96455,-42.60915 -6.5831,-9.2451 -21.62474,-9.26876 -29.385,-0.0462 C 130.60639,122.99809 130,127.63184 130,160.1815 V 190 H 115 100 Z M 57.5,65.588356 C 44.772364,59.931515 44.648185,40.221457 57.30159,34.096049 c 5.483381,-2.65446 9.913439,-2.65446 15.39682,0 C 85.691594,40.385941 85.038901,60.89089 71.6849,65.936382 67.872708,67.376728 61.152799,67.211855 57.5,65.588356 Z"
     style="fill:#000000" />
</svg>
